<svg version="1.1" id="Layer_1" xmlns:x="ns_extend;" xmlns:i="ns_ai;" xmlns:graph="ns_graphs;" xmlns="http://www.w3.org/2000/svg" xmlns:xlink="http://www.w3.org/1999/xlink" x="0px" y="0px" viewBox="0 0 41.9 31.2" style="enable-background:new 0 0 41.9 31.2;" xml:space="preserve">
 <style type="text/css">
  .st0{fill:#DE411B;}
 </style>
 <metadata>
  <sfw xmlns="ns_sfw;">
   <slices>
   </slices>
   <sliceSourceBounds bottomLeftOrigin="true" height="31.2" width="41.9" x="134.8" y="-209.7">
   </sliceSourceBounds>
  </sfw>
 </metadata>
 <g>
  <path class="st0" d="M15.6,31.2c-2.7,0-4.9-2.2-4.9-4.9v-3.5c0-0.3-0.2-1.1-0.7-1.6s-1.5-0.7-1.7-0.7H4.9c-2.7,0-4.9-2.2-4.9-4.9
		c0-2.6,2.2-4.8,4.9-4.8h3.4c0,0,1.1-0.1,1.7-0.7c0.5-0.5,0.7-1.6,0.7-1.7V4.9c0-2.7,2.2-4.9,4.9-4.9c2.4,0,4.3,1.6,4.8,3.8
		c0.1,0.3,0.1,0.6,0.1,1v3.4c0,0.3,0.2,1.1,0.7,1.6c0.7,0.7,1.7,0.8,1.7,0.8h3.4c2.7,0,4.9,2.2,4.9,4.9s-2.2,4.9-4.9,4.9
		s-4.9-2.2-4.9-4.9V12c0-0.3-0.2-1.1-0.7-1.6s-1.5-0.7-1.6-0.7h-6.9c0,0-1.1,0.1-1.7,0.7C10,10.9,9.8,11.8,9.8,12v6.9
		c0,0.2,0.2,1.1,0.7,1.6c0.7,0.7,1.7,0.7,1.7,0.7h3.4c2.7,0,4.9,2.2,4.9,4.9C20.4,29,18.2,31.2,15.6,31.2z M21.3,4.9
		c0,2.7,2.2,4.9,4.9,4.9h3.4c0,0,1,0.1,1.7,0.7C31.8,11,32,12,32,12.1v7c0,0.3-0.2,1-0.7,1.6c-0.6,0.6-1.7,0.7-1.7,0.7h-6.8
		c-0.3,0-1.1-0.2-1.6-0.7s-0.7-1.3-0.7-1.6v-3.5c0-2.7-2.2-4.9-4.9-4.9s-4.9,2.2-4.9,4.9s2.2,4.9,4.9,4.9H19c0,0,1,0.1,1.7,0.8
		c0.5,0.5,0.7,1.5,0.7,1.6v3.5c0,0.4,0,0.6,0.1,1c0.5,2.2,2.4,3.8,4.8,3.8c2.7,0,4.9-2.2,4.9-4.9v-3.5c0-0.2,0.2-1.1,0.7-1.7
		c0.6-0.6,1.7-0.8,1.7-0.7H37c2.7,0,4.9-2.2,4.9-4.9s-2.2-4.9-4.9-4.9h-3.4c-0.2,0-1.1-0.2-1.7-0.7c-0.5-0.5-0.7-1.4-0.7-1.6V4.9
		C31.2,2.2,29,0,26.3,0C23.5,0.1,21.3,2.2,21.3,4.9z">
  </path>
 </g>
</svg>